<?xml version="1.0" encoding="utf-8"?>
<!-- Generator: Adobe Illustrator 26.0.2, SVG Export Plug-In . SVG Version: 6.00 Build 0)  -->
<svg version="1.1" id="Слой_1" xmlns="http://www.w3.org/2000/svg" xmlns:xlink="http://www.w3.org/1999/xlink" x="0px" y="0px"
	 viewBox="0 0 133.8 86.3" style="enable-background:new 0 0 133.8 86.3;" xml:space="preserve">
<style type="text/css">
	.st0{stroke:#000000;stroke-miterlimit:10;}
	.st1{font-family:'Arial-BoldMT';}
	.st2{font-size:16.2501px;}
	.st3{font-size:21.1167px;}
	.st4{letter-spacing:1.1;}
	.st5{font-family:'ArialMT';}
	.st6{font-size:13.2544px;}
</style>
<path d="M29.3,56.1c-4.6-1.1-7.8-5.2-7.8-9.8c0.1-4.5,3.3-8.5,6.4-9.1c0.3-0.1,2-0.2,5.3-0.4c2.2-0.2,2.7-0.2,3.3-0.5
	c1.1-0.6,2.5-2,4-5.3c1.8-4,2-3.8,2.5-4.1c1.2-0.7,2.6-0.8,3.8-0.2c1.8,0.5,2,1.2,3.5,1.8c1.9,0.6,4,0.5,5.8-0.2
	c4-1.2,25.6-7.2,55.2-15.7c1.1-0.7,2.4-0.9,3.7-0.7c1.9,0.4,3.5,1.6,4.4,3.3l4.8,0.4c0-1,0-2,0-2.9l-4.2-4.6c0-0.6,0-1.2,0-1.8
	l-12.3,3.6c-0.6,0.9-1.5,1.6-2.5,2.1c-0.6,0.3-1.2,0.5-1.9,0.6L56.7,25.2c-1,0.2-2.4,0.4-3.1-0.4c-0.5-0.6-0.3-1.4,0-4
	s0.5-4.1,0.2-4.8c-0.8-1.6-2.4-2.7-4.2-3c-1.5-0.3-3,0-6.1,1.8c-5.7,3.3-5.4,5.2-8.8,6.5c-2.7,1-5.4,0.6-10.7-0.3s-5.8-2-9.5-2
	c-2.2,0-5.9,0-8.9,2.4s-3.7,6-4.1,7.9C-1.1,42.7,13,54,14.3,55.1c3.5,2.8,6,3.5,8.2,3.5C25,58.4,27.3,57.6,29.3,56.1z"/>
<circle cx="108.5" cy="7.7" r="1.3"/>
<circle cx="112.6" cy="6.4" r="1.3"/>
<circle cx="116.7" cy="5.1" r="1.3"/>
<text transform="matrix(1.0219 0 0 1 38.9712 49.1309)" class="st0 st1 st2">  REMONTE</text>
<text transform="matrix(0.9471 0 0 1 93.1074 57.4395)" class="st0 st1 st3 st4">           </text>
<text transform="matrix(1 0 0 1 50.374 65.0078)" class="st5 st6">BAMPERS</text>
</svg>
